<svg xmlns="http://www.w3.org/2000/svg" xmlns:xlink="http://www.w3.org/1999/xlink" width="197" height="84" viewBox="0 0 197 84">
  <defs>
    <clipPath id="clip-Artboard_1">
      <rect width="197" height="84"/>
    </clipPath>
  </defs>
  <g id="Artboard_1" data-name="Artboard – 1" clip-path="url(#clip-Artboard_1)">
    <g id="Group_13" data-name="Group 13" transform="translate(-2133 1695)">
      <path id="Path_12" data-name="Path 12" d="M11.016,0V-7.587H6.723V0H1.161V-18.792H6.723v6.939h4.293v-6.939h5.562V0ZM34.884-18.792,28.89-6.939V0H23.328V-6.912l-5.994-11.88h6.075l2.781,7.668L29-18.792Zm11.8,8.829a6.458,6.458,0,0,1,3.024,1.39,3.78,3.78,0,0,1,1.161,3.011,4.507,4.507,0,0,1-2.254,4.333A13.538,13.538,0,0,1,42.228,0H35.64V-18.792H41.5a14.447,14.447,0,0,1,6.385,1.12,3.874,3.874,0,0,1,2.2,3.74,3.529,3.529,0,0,1-.972,2.632A5.266,5.266,0,0,1,46.683-9.963ZM41.2-14.985v3.456h.945a2.876,2.876,0,0,0,1.782-.419,1.733,1.733,0,0,0,.513-1.417,1.4,1.4,0,0,0-.554-1.228,3.367,3.367,0,0,0-1.876-.392Zm1.08,11.07a4.246,4.246,0,0,0,2.133-.432,1.7,1.7,0,0,0,.729-1.593,1.851,1.851,0,0,0-.662-1.579,3.273,3.273,0,0,0-1.984-.5H41.2v4.1ZM59.022-6.7H58V0H52.434V-18.792h6.885q4.077,0,6.075,1.444a5.2,5.2,0,0,1,2,4.523,5.1,5.1,0,0,1-.783,2.916,7.64,7.64,0,0,1-2.538,2.187L68.661,0H62.5ZM58-10.422h1.458a2.247,2.247,0,0,0,1.7-.594,2.535,2.535,0,0,0,.567-1.809q0-2.16-2.538-2.16H58Zm16.848-8.37V0H69.282V-18.792Zm8.343,0a11.96,11.96,0,0,1,7.263,2.011q2.727,2.012,2.727,7.3,0,5.211-2.619,7.344A10.829,10.829,0,0,1,83.511,0H77.166V-18.792Zm-.459,3.915V-3.915h1.107a3.743,3.743,0,0,0,2.079-.513,3.043,3.043,0,0,0,1.161-1.715,11.578,11.578,0,0,0,.378-3.334,10.806,10.806,0,0,0-.391-3.28A2.889,2.889,0,0,0,85.887-14.4a3.876,3.876,0,0,0-2.025-.472ZM11.016,22V14.413H6.723V22H1.161V3.208H6.723v6.939h4.293V3.208h5.562V22Zm23.22-6.372a7.2,7.2,0,0,1-.864,3.537,6.064,6.064,0,0,1-2.619,2.47,9.354,9.354,0,0,1-4.32.9q-3.861,0-5.832-1.863a6.616,6.616,0,0,1-1.971-5.049V3.208h5.562V15.466a4.091,4.091,0,0,0,.527,2.336,1.955,1.955,0,0,0,1.715.743,1.955,1.955,0,0,0,1.715-.743,4.091,4.091,0,0,0,.526-2.336V3.208h5.562Zm13.095-3.591a6.458,6.458,0,0,1,3.024,1.39,3.78,3.78,0,0,1,1.161,3.01,4.507,4.507,0,0,1-2.255,4.333A13.538,13.538,0,0,1,42.876,22H36.288V3.208h5.859a14.447,14.447,0,0,1,6.385,1.12,3.874,3.874,0,0,1,2.2,3.74,3.529,3.529,0,0,1-.972,2.632A5.266,5.266,0,0,1,47.331,12.037ZM41.85,7.015v3.456h.945a2.876,2.876,0,0,0,1.782-.419,1.733,1.733,0,0,0,.513-1.417,1.4,1.4,0,0,0-.553-1.228,3.367,3.367,0,0,0-1.876-.392Zm1.08,11.07a4.246,4.246,0,0,0,2.133-.432,1.7,1.7,0,0,0,.729-1.593,1.851,1.851,0,0,0-.661-1.579,3.273,3.273,0,0,0-1.985-.5h-1.3v4.1Z" transform="translate(2220 -1662)"/>
      <path id="Path_13" data-name="Path 13" d="M9.7-12.474l-.288,2.268H6.336V0H3.384V-10.206H.162v-2.268ZM18.18-4.968a8.41,8.41,0,0,1-.054,1.026H12.2a2.644,2.644,0,0,0,.684,1.692,2.153,2.153,0,0,0,1.494.486A3.092,3.092,0,0,0,15.5-1.971a5.749,5.749,0,0,0,1.17-.639l1.17,1.584A5.839,5.839,0,0,1,14.112.306a4.568,4.568,0,0,1-3.564-1.368A5.254,5.254,0,0,1,9.306-4.734a6.32,6.32,0,0,1,.522-2.619,4.257,4.257,0,0,1,1.53-1.836,4.233,4.233,0,0,1,2.412-.675,4.143,4.143,0,0,1,3.24,1.3A5.179,5.179,0,0,1,18.18-4.968Zm-2.79-.81q-.036-2.2-1.548-2.2a1.345,1.345,0,0,0-1.143.54A3.456,3.456,0,0,0,12.2-5.652H15.39Zm8.532-4.086a5.188,5.188,0,0,1,1.782.288,4.9,4.9,0,0,1,1.494.882L25.974-7a2.99,2.99,0,0,0-1.818-.684,1.638,1.638,0,0,0-1.44.7,4.08,4.08,0,0,0-.486,2.268,3.588,3.588,0,0,0,.486,2.142,1.667,1.667,0,0,0,1.4.63A2.43,2.43,0,0,0,25-2.1a6.141,6.141,0,0,0,.954-.5L27.2-.828A5.03,5.03,0,0,1,23.976.306a4.9,4.9,0,0,1-2.52-.621,4.185,4.185,0,0,1-1.638-1.746A5.713,5.713,0,0,1,19.242-4.7a6,6,0,0,1,.576-2.682,4.362,4.362,0,0,1,1.638-1.827A4.591,4.591,0,0,1,23.922-9.864Zm10.08,0a2.522,2.522,0,0,1,1.944.756,3,3,0,0,1,.7,2.124V0H33.8V-6.5a1.593,1.593,0,0,0-.234-1,.821.821,0,0,0-.666-.279q-.864,0-1.656,1.224V0H28.4V-13.356l2.844-.288v5.112a4.259,4.259,0,0,1,1.26-1A3.294,3.294,0,0,1,34-9.864Zm10.386,0a2.522,2.522,0,0,1,1.944.756,3,3,0,0,1,.7,2.124V0H44.19V-6.5a1.642,1.642,0,0,0-.225-1,.815.815,0,0,0-.675-.279q-.864,0-1.656,1.242V0H38.79V-9.558h2.484l.2,1.134A4.305,4.305,0,0,1,42.795-9.5,3.476,3.476,0,0,1,44.388-9.864Zm8.928,0a4.454,4.454,0,0,1,3.438,1.341A5.315,5.315,0,0,1,58-4.77,5.946,5.946,0,0,1,57.429-2.1a4.179,4.179,0,0,1-1.62,1.773,4.765,4.765,0,0,1-2.493.63,4.461,4.461,0,0,1-3.429-1.341,5.291,5.291,0,0,1-1.251-3.753A5.946,5.946,0,0,1,49.2-7.461a4.179,4.179,0,0,1,1.62-1.773A4.765,4.765,0,0,1,53.316-9.864Zm0,2.088a1.411,1.411,0,0,0-1.3.729,4.569,4.569,0,0,0-.432,2.259A4.692,4.692,0,0,0,52.011-2.5a1.41,1.41,0,0,0,1.305.72,1.411,1.411,0,0,0,1.3-.729,4.569,4.569,0,0,0,.432-2.259,4.692,4.692,0,0,0-.423-2.286A1.41,1.41,0,0,0,53.316-7.776ZM62.226.306a2.578,2.578,0,0,1-1.935-.711A2.782,2.782,0,0,1,59.6-2.43V-13.356l2.844-.306V-2.538q0,.594.486.594a1.2,1.2,0,0,0,.468-.09l.558,2.016A4.434,4.434,0,0,1,62.226.306Zm6.858-10.17a4.454,4.454,0,0,1,3.438,1.341A5.315,5.315,0,0,1,73.764-4.77,5.946,5.946,0,0,1,73.2-2.1a4.179,4.179,0,0,1-1.62,1.773,4.765,4.765,0,0,1-2.493.63,4.461,4.461,0,0,1-3.429-1.341A5.291,5.291,0,0,1,64.4-4.788a5.946,5.946,0,0,1,.567-2.673,4.179,4.179,0,0,1,1.62-1.773A4.765,4.765,0,0,1,69.084-9.864Zm0,2.088a1.411,1.411,0,0,0-1.3.729,4.569,4.569,0,0,0-.432,2.259A4.692,4.692,0,0,0,67.779-2.5a1.41,1.41,0,0,0,1.305.72,1.411,1.411,0,0,0,1.3-.729,4.569,4.569,0,0,0,.432-2.259,4.692,4.692,0,0,0-.423-2.286A1.41,1.41,0,0,0,69.084-7.776ZM84.258-9a7.708,7.708,0,0,1-2.754.378,3.239,3.239,0,0,1,1.368.972A2.425,2.425,0,0,1,83.3-6.156a2.9,2.9,0,0,1-.486,1.647,3.238,3.238,0,0,1-1.395,1.143,5.105,5.105,0,0,1-2.133.414,5.409,5.409,0,0,1-1.1-.108.51.51,0,0,0-.225.225.665.665,0,0,0-.081.315.5.5,0,0,0,.207.423,1.546,1.546,0,0,0,.837.153h1.44a4.8,4.8,0,0,1,1.926.36,2.988,2.988,0,0,1,1.278.99,2.387,2.387,0,0,1,.45,1.422,2.635,2.635,0,0,1-1.287,2.331A6.834,6.834,0,0,1,79.02,4a8.259,8.259,0,0,1-2.754-.369,2.629,2.629,0,0,1-1.413-1.035,3.174,3.174,0,0,1-.4-1.674H77a1.2,1.2,0,0,0,.171.684,1.063,1.063,0,0,0,.621.378,5.088,5.088,0,0,0,1.3.126,3.318,3.318,0,0,0,1.62-.279.889.889,0,0,0,.45-.8A.805.805,0,0,0,80.82.342,1.724,1.724,0,0,0,79.794.09H78.408A3.745,3.745,0,0,1,76.2-.441,1.616,1.616,0,0,1,75.474-1.8a1.911,1.911,0,0,1,.306-1.017,2.514,2.514,0,0,1,.828-.819A3.348,3.348,0,0,1,75.3-4.779a2.979,2.979,0,0,1-.4-1.593A3.123,3.123,0,0,1,76.05-8.919a4.645,4.645,0,0,1,3.042-.945,7.374,7.374,0,0,0,2.439-.288,10.279,10.279,0,0,0,2.061-.954ZM79.164-7.992a1.357,1.357,0,0,0-1.053.423,1.655,1.655,0,0,0-.387,1.161,1.71,1.71,0,0,0,.387,1.2,1.357,1.357,0,0,0,1.053.423A1.36,1.36,0,0,0,80.235-5.2,1.818,1.818,0,0,0,80.6-6.444Q80.6-7.992,79.164-7.992ZM90.648.018a5.534,5.534,0,0,1-1.881,2.853A6.227,6.227,0,0,1,85.266,4L84.96,2a4.962,4.962,0,0,0,2.025-.612A2.943,2.943,0,0,0,88.038,0h-.972L84.15-9.558h3.024l1.71,7.74,1.872-7.74H93.69Z" transform="translate(2220 -1624)" opacity="0.6"/>
    </g>
    <g id="Group_14" data-name="Group 14" transform="translate(-23.101 -79.169)">
      <path id="Path_7" data-name="Path 7" d="M0,1.259c8.467,8.367,14.72,28.149,11.421,34.5s-11.451.673-6.972-5.781S23.616,16.05,29.166,8.745,25.077-3.918,21.733,3.713s10.851,41.059,7.96,48.525-12.188,3.325-8.671-3.9,17.948-13.407,24.14-21.615-1.742-15.229-6.654-7.047,5.125,26.04,14.52,36.115" transform="matrix(0.966, 0.259, -0.259, 0.966, 52.659, 87.169)" fill="none" stroke="#00d310" stroke-linejoin="round" stroke-width="5"/>
    </g>
  </g>
</svg>
